# Blender v2.78 (sub 0) OBJ File: 'camera.blend'
# www.blender.org
mtllib camera.mtl
o Body_Cube
v 0.000000 1.500000 2.804019
v -0.292635 1.471178 2.804019
v -0.574025 1.385819 2.804019
v -0.833355 1.247205 2.804019
v -1.060660 1.060660 2.804019
v -1.247204 0.833355 2.804019
v -1.385819 0.574025 2.804019
v -1.471178 0.292636 2.804019
v -1.500000 0.000000 2.804019
v -1.471178 -0.292635 2.804019
v -1.385819 -0.574025 2.804019
v -1.247204 -0.833355 2.804019
v -1.060660 -1.060660 2.804019
v -0.833355 -1.247204 2.804019
v -0.574025 -1.385819 2.804019
v -0.292635 -1.471178 2.804019
v 0.000001 -1.500000 2.804019
v 0.292636 -1.471178 2.804019
v 0.574026 -1.385819 2.804019
v 0.833356 -1.247204 2.804019
v 1.060661 -1.060659 2.804019
v 1.247205 -0.833354 2.804019
v 1.385820 -0.574024 2.804019
v 1.471178 -0.292634 2.804019
v 1.500000 0.000002 2.804019
v 1.471178 0.292637 2.804019
v 1.385819 0.574027 2.804019
v 1.247204 0.833357 2.804019
v 1.060659 1.060662 2.804019
v 0.833354 1.247206 2.804019
v 0.574023 1.385820 2.804019
v 0.292633 1.471178 2.804019
v 0.000000 1.979780 0.000000
v -1.000000 -1.000000 1.000000
v -1.000000 -1.000000 -1.000000
v 1.000000 -1.000000 -1.000000
v 1.000000 -1.000000 1.000000
v -1.000000 1.000000 1.000000
v -0.999999 1.000000 -1.000000
v 1.000000 1.000000 -1.000000
v 1.000000 1.000000 1.000000
v -0.452599 1.000000 -0.187473
v -0.407329 1.000000 -0.272168
v -0.346405 1.000000 -0.346405
v 0.346404 1.000000 0.346405
v 0.272168 1.000000 0.407329
v 0.407328 1.000000 0.272169
v 0.346405 1.000000 -0.346404
v 0.407329 1.000000 -0.272168
v 0.489890 1.000000 0.000000
v 0.480477 1.000000 0.095573
v 0.187472 1.000000 0.452600
v 0.452599 1.000000 0.187473
v 0.095572 1.000000 0.480477
v -0.407329 1.000000 0.272168
v -0.452599 1.000000 0.187473
v -0.480477 1.000000 0.095573
v -0.272168 1.000000 -0.407329
v -0.489890 1.000000 0.000000
v -0.480477 1.000000 -0.095573
v -0.346404 1.000000 0.346405
v -0.272168 1.000000 0.407329
v 0.480477 1.000000 -0.095572
v 0.272169 1.000000 -0.407329
v -0.187473 1.000000 -0.452599
v 0.000000 1.000000 -0.489890
v 0.095573 1.000000 -0.480477
v 0.452599 1.000000 -0.187472
v 0.187473 1.000000 -0.452599
v -0.095573 1.000000 -0.480477
v -0.187473 1.000000 0.452599
v -0.095573 1.000000 0.480477
v 0.000000 1.000000 0.489890
v 0.116663 -0.586500 1.000000
v 0.228841 -0.552471 1.000000
v 0.497211 -0.332225 1.000000
v 0.552472 -0.228841 1.000000
v 0.422844 -0.422843 1.000000
v 0.332226 -0.497211 1.000000
v -0.497211 -0.332226 1.000000
v -0.422843 -0.422843 1.000000
v -0.332226 -0.497211 1.000000
v -0.228841 -0.552471 1.000000
v -0.116662 -0.586500 1.000000
v -0.552471 -0.228841 1.000000
v 0.000000 -0.597991 1.000000
v -0.586500 -0.116662 1.000000
v 0.586501 -0.116662 1.000000
v 0.597991 0.000001 1.000000
v 0.586500 0.116663 1.000000
v -0.597990 0.000000 1.000000
v -0.586500 0.116662 1.000000
v -0.497211 0.332226 1.000000
v -0.552471 0.228841 1.000000
v 0.552471 0.228842 1.000000
v 0.497211 0.332226 1.000000
v -0.332226 0.497211 1.000000
v -0.422843 0.422843 1.000000
v -0.228841 0.552471 1.000000
v 0.422843 0.422844 1.000000
v 0.332225 0.497211 1.000000
v -0.116662 0.586500 1.000000
v 0.228840 0.552472 1.000000
v 0.116661 0.586500 1.000000
v 0.000000 0.597990 1.000000
vn -0.0878 0.8910 -0.4455
vn -0.2599 0.8567 -0.4455
vn -0.4220 0.7896 -0.4455
vn -0.5680 0.6921 -0.4455
vn -0.6921 0.5680 -0.4455
vn -0.7896 0.4220 -0.4455
vn -0.8567 0.2599 -0.4455
vn -0.8910 0.0878 -0.4455
vn -0.8910 -0.0878 -0.4455
vn -0.8567 -0.2599 -0.4455
vn -0.7896 -0.4220 -0.4455
vn -0.6921 -0.5680 -0.4455
vn -0.5680 -0.6921 -0.4455
vn -0.4220 -0.7896 -0.4455
vn -0.2599 -0.8567 -0.4455
vn -0.0878 -0.8910 -0.4455
vn 0.0878 -0.8910 -0.4455
vn 0.2599 -0.8567 -0.4455
vn 0.4220 -0.7896 -0.4455
vn 0.5680 -0.6921 -0.4455
vn 0.6921 -0.5680 -0.4455
vn 0.7896 -0.4220 -0.4455
vn 0.8567 -0.2599 -0.4455
vn 0.8910 -0.0878 -0.4455
vn 0.8910 0.0878 -0.4455
vn 0.8567 0.2599 -0.4455
vn 0.7896 0.4220 -0.4455
vn 0.6921 0.5680 -0.4455
vn 0.5680 0.6921 -0.4455
vn 0.4220 0.7896 -0.4455
vn 0.2599 0.8567 -0.4455
vn 0.0878 0.8910 -0.4455
vn -0.0000 0.0000 1.0000
vn 0.0000 -1.0000 -0.0000
vn 0.0000 1.0000 -0.0000
vn -1.0000 0.0000 -0.0000
vn 0.0000 -0.0000 -1.0000
vn 1.0000 -0.0000 0.0000
vn -0.8910 0.4455 -0.0878
vn -0.6921 0.4455 -0.5680
vn -0.7896 0.4455 -0.4220
vn 0.8910 0.4455 0.0878
vn -0.8567 0.4455 0.2599
vn -0.8910 0.4455 0.0878
vn -0.6921 0.4455 0.5680
vn 0.0878 0.4455 -0.8910
vn 0.7896 0.4455 0.4220
vn -0.0878 0.4455 -0.8910
vn 0.0878 0.4455 0.8910
vn -0.5680 0.4455 0.6921
vn 0.4220 0.4455 -0.7896
vn -0.4220 0.4455 0.7896
vn -0.5680 0.4455 -0.6921
vn 0.5680 0.4455 0.6921
vn 0.8567 0.4455 0.2599
vn 0.2599 0.4455 0.8567
vn -0.4220 0.4455 -0.7896
vn 0.5680 0.4455 -0.6921
vn 0.7896 0.4455 -0.4220
vn -0.0878 0.4455 0.8910
vn -0.7896 0.4455 0.4220
vn 0.8910 0.4455 -0.0878
vn -0.8567 0.4455 -0.2599
vn 0.2599 0.4455 -0.8567
vn 0.4220 0.4455 0.7896
vn -0.2599 0.4455 -0.8567
vn -0.2599 0.4455 0.8567
vn 0.8567 0.4455 -0.2599
vn 0.6921 0.4455 0.5680
vn 0.6921 0.4455 -0.5680
usemtl Material
s off
f 1//1 105//1 102//1 2//1
f 2//2 102//2 99//2 3//2
f 3//3 99//3 97//3 4//3
f 4//4 97//4 98//4 5//4
f 5//5 98//5 93//5 6//5
f 6//6 93//6 94//6 7//6
f 7//7 94//7 92//7 8//7
f 8//8 92//8 91//8 9//8
f 9//9 91//9 87//9 10//9
f 10//10 87//10 85//10 11//10
f 11//11 85//11 80//11 12//11
f 12//12 80//12 81//12 13//12
f 13//13 81//13 82//13 14//13
f 14//14 82//14 83//14 15//14
f 15//15 83//15 84//15 16//15
f 16//16 84//16 86//16 17//16
f 17//17 86//17 74//17 18//17
f 18//18 74//18 75//18 19//18
f 19//19 75//19 79//19 20//19
f 20//20 79//20 78//20 21//20
f 21//21 78//21 76//21 22//21
f 22//22 76//22 77//22 23//22
f 23//23 77//23 88//23 24//23
f 24//24 88//24 89//24 25//24
f 25//25 89//25 90//25 26//25
f 26//26 90//26 95//26 27//26
f 27//27 95//27 96//27 28//27
f 28//28 96//28 100//28 29//28
f 29//29 100//29 101//29 30//29
f 30//30 101//30 103//30 31//30
f 31//31 103//31 104//31 32//31
f 32//32 104//32 105//32 1//32
f 1//33 2//33 3//33 4//33 5//33 6//33 7//33 8//33 9//33 10//33 11//33 12//33 13//33 14//33 15//33 16//33 17//33 18//33 19//33 20//33 21//33 22//33 23//33 24//33 25//33 26//33 27//33 28//33 29//33 30//33 31//33 32//33
f 34//34 35//34 36//34 37//34
f 38//35 41//35 50//35 51//35 53//35 47//35 45//35 46//35 52//35 54//35 73//35 72//35 71//35 62//35 61//35 55//35 56//35 57//35 59//35
f 34//36 38//36 39//36 35//36
f 35//37 39//37 40//37 36//37
f 36//38 40//38 41//38 37//38
f 38//33 34//33 91//33 92//33 94//33 93//33 98//33 97//33 99//33 102//33 105//33 104//33 103//33 101//33 100//33 96//33 95//33 90//33 89//33 41//33
f 60//39 59//39 33//39
f 60//35 42//35 43//35 44//35 58//35 65//35 70//35 66//35 67//35 69//35 64//35 48//35 49//35 68//35 63//35 50//35 41//35 40//35 39//35 38//35 59//35
f 44//40 43//40 33//40
f 43//41 42//41 33//41
f 51//42 50//42 33//42
f 57//43 56//43 33//43
f 59//44 57//44 33//44
f 55//45 61//45 33//45
f 67//46 66//46 33//46
f 47//47 53//47 33//47
f 66//48 70//48 33//48
f 73//49 54//49 33//49
f 61//50 62//50 33//50
f 64//51 69//51 33//51
f 62//52 71//52 33//52
f 58//53 44//53 33//53
f 46//54 45//54 33//54
f 53//55 51//55 33//55
f 54//56 52//56 33//56
f 65//57 58//57 33//57
f 48//58 64//58 33//58
f 68//59 49//59 33//59
f 72//60 73//60 33//60
f 56//61 55//61 33//61
f 50//62 63//62 33//62
f 42//63 60//63 33//63
f 69//64 67//64 33//64
f 52//65 46//65 33//65
f 70//66 65//66 33//66
f 71//67 72//67 33//67
f 63//68 68//68 33//68
f 45//69 47//69 33//69
f 49//70 48//70 33//70
f 41//33 89//33 88//33 77//33 76//33 78//33 79//33 75//33 74//33 86//33 84//33 83//33 82//33 81//33 80//33 85//33 87//33 91//33 34//33 37//33
